<svg width="inherit" height="inherit" viewBox="0 0 656 282" fill="none" xmlns="http://www.w3.org/2000/svg">
<path d="M484.688 30.1875C489.562 30.1875 493.198 31.3542 495.594 33.6875C498.01 36 499.219 39.5312 499.219 44.2812V67H493.438L493.406 43.9375C493.406 40.75 492.719 38.4375 491.344 37C489.99 35.5625 487.792 34.8438 484.75 34.8438H479.531C478.844 35.9688 478.292 37.4167 477.875 39.1875C477.479 40.9375 477.281 42.7396 477.281 44.5938V57C477.281 60.3958 476.469 62.9688 474.844 64.7188C473.24 66.4479 470.917 67.3125 467.875 67.3125C467.25 67.3125 466.646 67.2812 466.062 67.2188C465.5 67.1771 464.906 67.1146 464.281 67.0312V62.375C464.656 62.4167 465.021 62.4479 465.375 62.4688C465.75 62.4896 466.104 62.5 466.438 62.5C468.271 62.5 469.594 62.0312 470.406 61.0938C471.219 60.1562 471.625 58.6771 471.625 56.6562V45.0312C471.625 43.1771 471.865 41.3021 472.344 39.4062C472.844 37.5104 473.542 35.9896 474.438 34.8438H467.531V30.1875H484.688ZM505.875 30.1875H535.344V34.8438H529.188V67H523.375V34.8438H505.875V30.1875ZM552.375 67.7812C550.458 67.7812 548.396 67.5729 546.188 67.1562C544 66.7604 541.698 66.1042 539.281 65.1875L540.688 60.875C542.771 61.6875 544.729 62.2917 546.562 62.6875C548.396 63.0833 550.094 63.2917 551.656 63.3125C555.052 63.3125 557.781 62.3854 559.844 60.5312C561.927 58.6771 562.969 55.9896 562.969 52.4688V30.1875H568.75V52.25C568.75 55.625 568.052 58.4688 566.656 60.7812C565.281 63.0729 563.365 64.8125 560.906 66C558.448 67.1875 555.604 67.7812 552.375 67.7812ZM541.281 30.1875H547.094L553.062 57.3438C553.396 58.9062 553.771 60.2292 554.188 61.3125C554.604 62.3958 555.177 63.3958 555.906 64.3125L551.344 64.2188C550.469 63.3229 549.677 62.3125 548.969 61.1875C548.26 60.0417 547.729 58.6562 547.375 57.0312L541.281 30.1875ZM595.312 67.6875C592.25 67.6875 589.552 66.9896 587.219 65.5938C584.885 64.1771 583.062 62.1979 581.75 59.6562C580.458 57.1146 579.792 54.1562 579.75 50.7812V47.0312C579.75 45.4062 579.969 43.8125 580.406 42.25C580.865 40.6667 581.49 39.25 582.281 38C583.073 36.7292 583.969 35.7604 584.969 35.0938C585.031 35.0521 585.094 35.0104 585.156 34.9688C585.24 34.9062 585.323 34.8646 585.406 34.8438L585.375 34.75C584.583 34.8333 583.573 35.0312 582.344 35.3438C581.135 35.6562 579.948 35.9688 578.781 36.2812L577.656 31.9062C579.281 31.4271 581.062 31.0104 583 30.6562C584.938 30.2812 586.885 30 588.844 29.8125C590.823 29.6042 592.667 29.5 594.375 29.5C597.812 29.5 600.76 30.1771 603.219 31.5312C605.677 32.8646 607.562 34.7917 608.875 37.3125C610.208 39.8125 610.875 42.8333 610.875 46.375V50.7812C610.875 54.1562 610.229 57.1146 608.938 59.6562C607.646 62.1979 605.833 64.1771 603.5 65.5938C601.167 66.9896 598.438 67.6875 595.312 67.6875ZM595.312 62.7812C597.271 62.7812 598.979 62.2812 600.438 61.2812C601.917 60.2812 603.062 58.8854 603.875 57.0938C604.708 55.3021 605.125 53.2083 605.125 50.8125V46.4375C605.125 43.9375 604.708 41.7917 603.875 40C603.062 38.1875 601.896 36.8021 600.375 35.8438C598.854 34.8646 597.052 34.375 594.969 34.375C593.094 34.375 591.458 34.875 590.062 35.875C588.688 36.8542 587.604 38.2708 586.812 40.125C586.042 41.9583 585.625 44.1562 585.562 46.7188V50.8125C585.562 53.2083 585.969 55.3021 586.781 57.0938C587.594 58.8854 588.729 60.2812 590.188 61.2812C591.667 62.2812 593.375 62.7812 595.312 62.7812ZM620.594 67L623.406 43.5938C623.635 41.8646 624.125 40.25 624.875 38.75C625.625 37.25 626.51 36.0938 627.531 35.2812C627.635 35.1979 627.74 35.125 627.844 35.0625C627.969 34.9792 628.073 34.9062 628.156 34.8438L628.094 34.75C627.177 34.8958 626.01 35.1562 624.594 35.5312C623.198 35.8854 621.906 36.2708 620.719 36.6875L619.375 32.3125C620.979 31.75 622.719 31.2604 624.594 30.8438C626.49 30.4271 628.406 30.1042 630.344 29.875C632.281 29.625 634.094 29.5 635.781 29.5C640.74 29.5 644.521 30.8229 647.125 33.4688C649.75 36.0938 651.073 39.9583 651.094 45.0625V67H635.938V62.3438H645.312V44.4062C645.312 41.1146 644.562 38.625 643.062 36.9375C641.583 35.2292 639.448 34.375 636.656 34.375C634.635 34.375 632.948 35.1562 631.594 36.7188C630.24 38.2604 629.406 40.3646 629.094 43.0312L626.312 67H620.594Z" fill="white"/>
<path d="M195.72 178V130.759C195.72 127.056 194.744 124.289 192.791 122.458C190.878 120.627 187.948 119.711 184.001 119.711H153.85V104.819H185.405C194.764 104.819 202.007 107.159 207.134 111.838C212.261 116.477 214.824 123.068 214.824 131.613V178H195.72ZM153.606 178V152.915C153.606 147.869 154.155 144.187 155.254 141.867C156.353 139.548 157.268 137.981 158 137.167H173.198C172.873 138.754 172.608 140.667 172.405 142.905C172.201 145.143 172.1 147.788 172.1 150.839V178H153.606ZM248.767 179.221C246.366 179.221 244.108 179.078 241.992 178.793C239.876 178.509 237.476 178.081 234.79 177.512L234.851 163.107C237.781 163.514 240.731 163.718 243.701 163.718C246.509 163.718 248.584 162.965 249.927 161.459C251.31 159.913 252.002 157.533 252.002 154.318V119.711H239.124V104.819H271.167V155.844C271.167 163.209 269.194 168.946 265.247 173.056C261.3 177.166 255.806 179.221 248.767 179.221ZM299.312 178L299.373 104.819H331.172C340.734 104.819 347.977 107.159 352.9 111.838C357.824 116.477 360.306 123.374 360.347 132.529V178H341.243L341.182 130.942C341.182 127.158 340.347 124.35 338.679 122.519C337.011 120.647 334.529 119.711 331.233 119.711H318.416V178H299.312ZM391.238 146.567V119.711H379.763V104.819H410.403V146.567H391.238ZM442.332 146.567V119.711H430.857V104.819H461.497V146.567H442.332ZM502.214 93.9546C502.214 96.5994 501.706 99.346 500.688 102.194C499.671 105.043 498.308 107.728 496.599 110.251C494.931 112.774 493.079 114.93 491.045 116.721L482.5 111.838C483.965 109.396 485.226 106.772 486.284 103.964C487.342 101.116 487.871 97.7591 487.871 93.8936V84.25H502.214V93.9546ZM523.95 178V163.046H557.214L517.847 104.819H539.209L558.74 136.008L581.812 169.394V178H523.95ZM562.83 150.778L551.05 135.52L565.332 104.819H586.755L562.83 150.778Z" fill="#A4984C"/>
<path d="M15.4375 235.5C13.1042 235.5 10.9583 234.979 9 233.938C7.04167 232.854 5.47917 231.312 4.3125 229.312C3.14583 227.271 2.5625 224.854 2.5625 222.062C2.5625 219.354 3.16667 216.917 4.375 214.75C5.625 212.542 7.3125 210.812 9.4375 209.562C11.6042 208.271 14.0208 207.625 16.6875 207.625C18.5208 207.625 20.0625 207.854 21.3125 208.312C22.5625 208.771 23.5 209.375 24.125 210.125C24.7917 210.875 25.125 211.667 25.125 212.5C25.125 213.167 24.9167 213.729 24.5 214.188C24.0833 214.604 23.5 214.812 22.75 214.812C22.0833 214.812 21.5 214.688 21 214.438C20.5 214.188 19.8958 213.688 19.1875 212.938L16 209.75L18.25 210.375C16.5833 210 14.9792 210.167 13.4375 210.875C11.8958 211.542 10.625 212.729 9.625 214.438C8.625 216.104 8.125 218.271 8.125 220.938C8.125 224.271 8.95833 226.833 10.625 228.625C12.3333 230.417 14.4583 231.312 17 231.312C18.5833 231.312 19.9375 231.021 21.0625 230.438C22.2292 229.854 23.3333 228.917 24.375 227.625L26.0625 229.062C24.8958 231.229 23.4167 232.854 21.625 233.938C19.8333 234.979 17.7708 235.5 15.4375 235.5ZM28.1875 235L28.0625 232.75L31.9375 231.812C32.0208 231.354 32.0833 230.667 32.125 229.75C32.1667 228.792 32.1875 227.521 32.1875 225.938C32.2292 224.354 32.25 222.417 32.25 220.125V212.312C32.25 210.896 32.2292 209.375 32.1875 207.75C32.1875 206.125 32.1667 204.562 32.125 203.062C32.125 201.521 32.1042 200.188 32.0625 199.062C32.0625 197.938 32.0417 197.188 32 196.812L27.375 196.188L27.25 194.188L36.0625 191.625L37.25 192.5C37.2083 193.792 37.1667 195.083 37.125 196.375C37.0833 197.667 37.0417 199.062 37 200.562C37 202.021 36.9792 203.688 36.9375 205.562C36.9375 207.438 36.9375 209.604 36.9375 212.062L37.125 212.125C38.5833 210.542 40 209.396 41.375 208.688C42.7917 207.979 44.3333 207.625 46 207.625C47.5417 207.625 48.9792 208.021 50.3125 208.812C51.6875 209.604 52.7917 210.812 53.625 212.438C54.5 214.021 54.9375 216.062 54.9375 218.562V225.312C54.9375 226.812 54.9792 228.167 55.0625 229.375C55.1458 230.542 55.2292 231.354 55.3125 231.812L59.1875 232.75L59.0625 235H46.5L46.3125 232.75L49.9375 231.812C49.9792 231.479 50.0208 231.062 50.0625 230.562C50.1042 230.062 50.125 229.438 50.125 228.688C50.1667 227.896 50.1875 226.917 50.1875 225.75V219C50.1875 217.208 49.875 215.771 49.25 214.688C48.6667 213.562 47.8958 212.75 46.9375 212.25C45.9792 211.708 44.9583 211.438 43.875 211.438C42.5417 211.438 41.2708 211.792 40.0625 212.5C38.8542 213.167 37.8333 214.104 37 215.312V224.688C37 226.604 37.0208 228.188 37.0625 229.438C37.1458 230.688 37.2292 231.479 37.3125 231.812L41.125 232.75L41 235H28.1875ZM72.875 235.5C71.2083 235.5 69.7292 235.167 68.4375 234.5C67.1458 233.833 66.125 232.979 65.375 231.938C64.6667 230.896 64.3125 229.812 64.3125 228.688C64.3125 227.271 64.7708 226.104 65.6875 225.188C66.6042 224.271 68.1042 223.479 70.1875 222.812L79.6875 219.625V216.438C79.6875 215.396 79.375 214.458 78.75 213.625C78.125 212.75 77.2917 212.062 76.25 211.562C75.2083 211.062 74.0417 210.812 72.75 210.812C71.7083 210.812 71 211.042 70.625 211.5C70.25 211.917 70.0208 212.771 69.9375 214.062L69.8125 216.688C68.3125 217.021 67.0417 216.979 66 216.562C64.9583 216.104 64.4375 215.375 64.4375 214.375C64.4375 213.667 64.7292 212.958 65.3125 212.25C65.9375 211.542 66.75 210.875 67.75 210.25C68.75 209.583 69.8333 209.021 71 208.562C72.1667 208.104 73.3125 207.792 74.4375 207.625C77.5208 207.625 79.9792 208.438 81.8125 210.062C83.6875 211.688 84.6458 213.812 84.6875 216.438L84.5625 226.938C84.5625 227.729 84.5833 228.5 84.625 229.25C84.7083 230 84.8125 230.562 84.9375 230.938L88.9375 231.688V233.625L85.875 234.75C85.2917 234.958 84.75 235.125 84.25 235.25C83.75 235.417 83.3333 235.5 83 235.5C81.7083 235.5 80.875 234.771 80.5 233.312L79.8125 230.875H80.75C79.375 232.417 78.0417 233.583 76.75 234.375C75.5 235.125 74.2083 235.5 72.875 235.5ZM74.5625 231.812C75.5208 231.812 76.4167 231.604 77.25 231.188C78.0833 230.729 78.8958 230.042 79.6875 229.125V222.562L72.6875 224.438C71.6875 224.688 70.9583 225.083 70.5 225.625C70.0833 226.167 69.875 226.854 69.875 227.688C69.875 228.729 70.3333 229.688 71.25 230.562C72.2083 231.396 73.3125 231.812 74.5625 231.812ZM103.625 235.25L92.625 211.312L89.6875 210.375L89.875 208.125H102L102.125 210.375L98.25 211.312L106.75 230.312L103.625 235.25ZM119.625 208.125L119.812 210.375L116.875 211.312L106.25 233.625L101.25 244C100.333 245.917 99.3542 247.271 98.3125 248.062C97.3125 248.854 96.1458 249.25 94.8125 249.25C93.7708 249.25 92.9167 249 92.25 248.5C91.625 248 91.3125 247.354 91.3125 246.562C91.3125 245.938 91.5625 245.333 92.0625 244.75C92.5625 244.208 93.3333 243.792 94.375 243.5L100.188 241.75L97.3125 244.875L104.25 231.5L104.938 230.375L113.062 211.312L109.188 210.375L109.312 208.125H119.625ZM147.625 235H136.188L136.062 232.75L139 231.812L132.812 223.5L131.188 221.562L123.438 211.312L120.5 210.375L120.625 208.125H131.812L132 210.375L129.375 211.312L134.625 218.438L136.25 220.438L144.812 231.812L147.75 232.75L147.625 235ZM139.875 211.312L137.25 210.375L137.438 208.125H146.312L146.5 210.375L143.562 211.312L136.25 220.438L132.812 223.5L126.812 231.812L129.75 232.75L129.625 235H120.375L120.25 232.75L123.188 231.812L131.188 221.562L134.625 218.438L139.875 211.312ZM160.562 235.5C158.896 235.5 157.417 235.167 156.125 234.5C154.833 233.833 153.812 232.979 153.062 231.938C152.354 230.896 152 229.812 152 228.688C152 227.271 152.458 226.104 153.375 225.188C154.292 224.271 155.792 223.479 157.875 222.812L167.375 219.625V216.438C167.375 215.396 167.062 214.458 166.438 213.625C165.812 212.75 164.979 212.062 163.938 211.562C162.896 211.062 161.729 210.812 160.438 210.812C159.396 210.812 158.688 211.042 158.312 211.5C157.938 211.917 157.708 212.771 157.625 214.062L157.5 216.688C156 217.021 154.729 216.979 153.688 216.562C152.646 216.104 152.125 215.375 152.125 214.375C152.125 213.667 152.417 212.958 153 212.25C153.625 211.542 154.438 210.875 155.438 210.25C156.438 209.583 157.521 209.021 158.688 208.562C159.854 208.104 161 207.792 162.125 207.625C165.208 207.625 167.667 208.438 169.5 210.062C171.375 211.688 172.333 213.812 172.375 216.438L172.25 226.938C172.25 227.729 172.271 228.5 172.312 229.25C172.396 230 172.5 230.562 172.625 230.938L176.625 231.688V233.625L173.562 234.75C172.979 234.958 172.438 235.125 171.938 235.25C171.438 235.417 171.021 235.5 170.688 235.5C169.396 235.5 168.562 234.771 168.188 233.312L167.5 230.875H168.438C167.062 232.417 165.729 233.583 164.438 234.375C163.188 235.125 161.896 235.5 160.562 235.5ZM162.25 231.812C163.208 231.812 164.104 231.604 164.938 231.188C165.771 230.729 166.583 230.042 167.375 229.125V222.562L160.375 224.438C159.375 224.688 158.646 225.083 158.188 225.625C157.771 226.167 157.562 226.854 157.562 227.688C157.562 228.729 158.021 229.688 158.938 230.562C159.896 231.396 161 231.812 162.25 231.812ZM179.875 235L179.75 232.75L183.625 231.812C183.667 231.521 183.688 231.125 183.688 230.625C183.729 230.125 183.771 229.438 183.812 228.562C183.854 227.688 183.875 226.542 183.875 225.125L183.938 220.312C183.938 218.938 183.875 217.583 183.75 216.25C183.667 214.875 183.562 213.792 183.438 213L179.438 212.125V210.062L187.812 207.75L188.875 208.75L188.562 212.062L188.75 212.125C190.208 210.542 191.646 209.396 193.062 208.688C194.479 207.979 196.021 207.625 197.688 207.625C199.229 207.625 200.667 208.021 202 208.812C203.375 209.562 204.479 210.729 205.312 212.312C206.188 213.896 206.625 215.917 206.625 218.375V225.312C206.625 226.812 206.646 228.167 206.688 229.375C206.771 230.583 206.875 231.396 207 231.812L210.875 232.75L210.688 235H198.125L198 232.75L201.625 231.812C201.667 231.479 201.708 231.062 201.75 230.562C201.792 230.062 201.812 229.438 201.812 228.688C201.854 227.896 201.875 226.917 201.875 225.75V219C201.875 217.125 201.542 215.646 200.875 214.562C200.25 213.438 199.458 212.646 198.5 212.188C197.542 211.688 196.562 211.438 195.562 211.438C194.188 211.438 192.896 211.792 191.688 212.5C190.521 213.167 189.521 214.104 188.688 215.312V224.688C188.688 226.604 188.708 228.167 188.75 229.375C188.833 230.542 188.917 231.354 189 231.812L192.875 232.75L192.688 235H179.875ZM224.562 235.5C222.896 235.5 221.417 235.167 220.125 234.5C218.833 233.833 217.812 232.979 217.062 231.938C216.354 230.896 216 229.812 216 228.688C216 227.271 216.458 226.104 217.375 225.188C218.292 224.271 219.792 223.479 221.875 222.812L231.375 219.625V216.438C231.375 215.396 231.062 214.458 230.438 213.625C229.812 212.75 228.979 212.062 227.938 211.562C226.896 211.062 225.729 210.812 224.438 210.812C223.396 210.812 222.688 211.042 222.312 211.5C221.938 211.917 221.708 212.771 221.625 214.062L221.5 216.688C220 217.021 218.729 216.979 217.688 216.562C216.646 216.104 216.125 215.375 216.125 214.375C216.125 213.667 216.417 212.958 217 212.25C217.625 211.542 218.438 210.875 219.438 210.25C220.438 209.583 221.521 209.021 222.688 208.562C223.854 208.104 225 207.792 226.125 207.625C229.208 207.625 231.667 208.438 233.5 210.062C235.375 211.688 236.333 213.812 236.375 216.438L236.25 226.938C236.25 227.729 236.271 228.5 236.312 229.25C236.396 230 236.5 230.562 236.625 230.938L240.625 231.688V233.625L237.562 234.75C236.979 234.958 236.438 235.125 235.938 235.25C235.438 235.417 235.021 235.5 234.688 235.5C233.396 235.5 232.562 234.771 232.188 233.312L231.5 230.875H232.438C231.062 232.417 229.729 233.583 228.438 234.375C227.188 235.125 225.896 235.5 224.562 235.5ZM226.25 231.812C227.208 231.812 228.104 231.604 228.938 231.188C229.771 230.729 230.583 230.042 231.375 229.125V222.562L224.375 224.438C223.375 224.688 222.646 225.083 222.188 225.625C221.771 226.167 221.562 226.854 221.562 227.688C221.562 228.729 222.021 229.688 222.938 230.562C223.896 231.396 225 231.812 226.25 231.812Z" fill="white"/>
<line x1="290" y1="271.25" y2="271.25" stroke="#A4984C" stroke-width="2.5"/>
<line x1="651" y1="253.25" x2="435" y2="253.25" stroke="#A4984C" stroke-width="2.5"/>
<path d="M305.843 260.063V272H302.771V260.03C302.771 257.994 302.356 256.555 301.526 255.714C300.707 254.873 299.285 254.452 297.26 254.452H289.523V251.63H297.31C299.346 251.63 300.99 251.918 302.24 252.493C303.491 253.058 304.404 253.96 304.979 255.199C305.555 256.428 305.843 258.049 305.843 260.063ZM292.91 258.769V272H289.855V258.769H292.91ZM314.492 251.63V272H311.438V251.63H314.492ZM323.324 251.63V272H320.27V251.63H323.324ZM344.408 257.955C344.408 260.036 343.988 262.011 343.146 263.882C342.305 265.752 341.116 267.429 339.577 268.912C338.039 270.384 336.213 271.563 334.099 272.448V268.945C336.412 267.905 338.188 266.461 339.428 264.612C340.678 262.753 341.304 260.672 341.304 258.37C341.304 256.887 340.977 255.863 340.324 255.299C339.682 254.734 338.57 254.452 336.987 254.452H328.255V251.63H336.854C339.588 251.63 341.531 252.122 342.682 253.107C343.833 254.081 344.408 255.697 344.408 257.955ZM332.156 258.769V278.392H329.102V258.769H332.156ZM352.427 268.846C352.05 269.964 351.453 270.771 350.634 271.27C349.815 271.757 348.525 272 346.766 272H346.583V269.178H346.865C347.629 269.178 348.238 269.034 348.691 268.746C349.134 268.458 349.45 268.021 349.638 267.435C349.826 266.837 349.92 265.935 349.92 264.729V254.452H346.766V251.63H357.772C360.827 251.63 363.019 252.283 364.347 253.589C365.675 254.884 366.339 257.042 366.339 260.063V272H363.284V260.03C363.284 257.994 362.869 256.555 362.039 255.714C361.22 254.873 359.787 254.452 357.739 254.452H352.975V264.114C352.975 266.151 352.792 267.728 352.427 268.846ZM397.683 260.03C397.683 258.016 397.273 256.583 396.454 255.73C395.646 254.878 394.224 254.452 392.188 254.452H387.041V272H383.986V251.63H392.221C395.275 251.63 397.461 252.283 398.778 253.589C400.095 254.895 400.754 257.053 400.754 260.063V272H397.683V260.03ZM410.333 268.846C409.957 269.964 409.359 270.771 408.54 271.27C407.721 271.757 406.432 272 404.672 272H404.489V269.178H404.771C405.535 269.178 406.144 269.034 406.598 268.746C407.04 268.458 407.356 268.021 407.544 267.435C407.732 266.837 407.826 265.935 407.826 264.729V254.452H404.672V251.63H415.679C418.733 251.63 420.925 252.283 422.253 253.589C423.581 254.884 424.245 257.042 424.245 260.063V272H421.19V260.03C421.19 257.994 420.775 256.555 419.945 255.714C419.126 254.873 417.693 254.452 415.646 254.452H410.881V264.114C410.881 266.151 410.698 267.728 410.333 268.846ZM442.756 260.678C442.756 258.586 442.297 257.025 441.378 255.996C440.459 254.967 439.015 254.452 437.045 254.452H432.463V260.196H436.497V263.019H429.358V251.63H437.078C440.044 251.63 442.247 252.371 443.686 253.854C445.135 255.326 445.86 257.623 445.86 260.744V262.105C445.86 268.702 442.739 272 436.497 272H429.541V269.178H436.58C438.683 269.178 440.238 268.597 441.245 267.435C442.252 266.261 442.756 264.496 442.756 262.139V260.678Z" fill="white"/>
<path d="M600.898 233.574V242H598.73V233.551C598.73 232.129 598.441 231.117 597.863 230.516C597.293 229.914 596.289 229.613 594.852 229.613H590.457V227.621H594.875C596.312 227.621 597.473 227.824 598.355 228.23C599.238 228.629 599.883 229.266 600.289 230.141C600.695 231.008 600.898 232.152 600.898 233.574ZM615.641 240.547C615.102 240.906 614.43 241.199 613.625 241.426C612.828 241.652 611.828 241.82 610.625 241.93C609.422 242.039 607.934 242.102 606.16 242.117L603.418 227.621H605.656L607.098 235.016L607.953 234.852C608.422 234.742 608.809 234.602 609.113 234.43C609.418 234.25 609.66 234 609.84 233.68C609.988 233.43 610.102 233.121 610.18 232.754C610.258 232.387 610.316 231.949 610.355 231.441L610.648 227.621H612.875L612.512 231.465C612.457 232.113 612.391 232.676 612.312 233.152C612.234 233.621 612.141 234 612.031 234.289C611.836 234.875 611.543 235.328 611.152 235.648C610.762 235.961 610.113 236.238 609.207 236.48L607.449 236.891L608.023 239.914H608.305C609.875 239.914 611.133 239.824 612.078 239.645C613.023 239.457 613.77 239.168 614.316 238.777C614.684 238.512 614.992 238.184 615.242 237.793C615.492 237.402 615.703 236.887 615.875 236.246C616.047 235.605 616.191 234.781 616.309 233.773L617.047 227.621H619.309L618.559 233.691C618.402 235.051 618.199 236.172 617.949 237.055C617.699 237.93 617.387 238.641 617.012 239.188C616.645 239.727 616.188 240.18 615.641 240.547ZM631.145 235.016C631.145 239.672 628.941 242 624.535 242H620.797V240.008H624.582C626.074 240.008 627.176 239.594 627.887 238.766C628.598 237.938 628.953 236.695 628.953 235.039V234.582C628.953 232.918 628.594 231.676 627.875 230.855C627.164 230.027 626.066 229.613 624.582 229.613H620.797V227.621H624.535C628.941 227.621 631.145 229.949 631.145 234.605V235.016Z" fill="white"/>
</svg>
