<svg width="503" height="289" viewBox="0 0 503 289" fill="none" xmlns="http://www.w3.org/2000/svg">
<path d="M126.375 20.0625L127.75 30.1875L125 30.5L122.375 23.4375C122.042 23.3542 121.646 23.3125 121.188 23.3125C120.771 23.2708 120.396 23.25 120.062 23.25H117.812C117.396 23.25 116.833 23.25 116.125 23.25C115.417 23.25 114.771 23.2708 114.188 23.3125C114.188 23.6458 114.167 24.4375 114.125 25.6875C114.125 26.8958 114.125 28.3125 114.125 29.9375C114.125 31.5625 114.125 33.125 114.125 34.625V43.0625C114.125 45.7292 114.146 48.0417 114.188 50C114.229 51.9167 114.25 53.1667 114.25 53.75L119.562 54.5L119.375 57H103.438L103.312 54.5L108.562 53.75C108.562 53.1667 108.583 51.9167 108.625 50C108.667 48.0417 108.688 45.7292 108.688 43.0625V34.625C108.688 33.125 108.688 31.5625 108.688 29.9375C108.688 28.3125 108.688 26.8958 108.688 25.6875C108.688 24.4375 108.667 23.6458 108.625 23.3125C108.083 23.2708 107.458 23.25 106.75 23.25C106.083 23.25 105.521 23.25 105.062 23.25H102.625C102.292 23.25 101.917 23.2708 101.5 23.3125C101.083 23.3125 100.708 23.3542 100.375 23.4375L97.8125 30.5625L95 30.1875L96.375 20.0625C96.875 20.1042 97.375 20.1458 97.875 20.1875C98.375 20.1875 98.875 20.2083 99.375 20.25C99.875 20.25 100.375 20.2708 100.875 20.3125C101.417 20.3125 101.938 20.3125 102.438 20.3125H120.312C120.812 20.3125 121.312 20.3125 121.812 20.3125C122.312 20.2708 122.812 20.25 123.312 20.25C123.812 20.2083 124.312 20.1875 124.812 20.1875C125.354 20.1458 125.875 20.1042 126.375 20.0625ZM130.75 57L130.625 54.75L134.5 53.8125C134.583 53.3542 134.646 52.6667 134.688 51.75C134.729 50.7917 134.75 49.5208 134.75 47.9375C134.792 46.3542 134.812 44.4167 134.812 42.125V34.3125C134.812 32.8958 134.792 31.375 134.75 29.75C134.75 28.125 134.729 26.5625 134.688 25.0625C134.688 23.5208 134.667 22.1875 134.625 21.0625C134.625 19.9375 134.604 19.1875 134.562 18.8125L129.938 18.1875L129.812 16.1875L138.625 13.625L139.812 14.5C139.771 15.7917 139.729 17.0833 139.688 18.375C139.646 19.6667 139.604 21.0625 139.562 22.5625C139.562 24.0208 139.542 25.6875 139.5 27.5625C139.5 29.4375 139.5 31.6042 139.5 34.0625L139.688 34.125C141.146 32.5417 142.562 31.3958 143.938 30.6875C145.354 29.9792 146.896 29.625 148.562 29.625C150.104 29.625 151.542 30.0208 152.875 30.8125C154.25 31.6042 155.354 32.8125 156.188 34.4375C157.062 36.0208 157.5 38.0625 157.5 40.5625V47.3125C157.5 48.8125 157.542 50.1667 157.625 51.375C157.708 52.5417 157.792 53.3542 157.875 53.8125L161.75 54.75L161.625 57H149.062L148.875 54.75L152.5 53.8125C152.542 53.4792 152.583 53.0625 152.625 52.5625C152.667 52.0625 152.688 51.4375 152.688 50.6875C152.729 49.8958 152.75 48.9167 152.75 47.75V41C152.75 39.2083 152.438 37.7708 151.812 36.6875C151.229 35.5625 150.458 34.75 149.5 34.25C148.542 33.7083 147.521 33.4375 146.438 33.4375C145.104 33.4375 143.833 33.7917 142.625 34.5C141.417 35.1667 140.396 36.1042 139.562 37.3125V46.6875C139.562 48.6042 139.583 50.1875 139.625 51.4375C139.708 52.6875 139.792 53.4792 139.875 53.8125L143.688 54.75L143.562 57H130.75ZM178.688 57.5C176.271 57.5 174.083 56.9583 172.125 55.875C170.208 54.7917 168.667 53.25 167.5 51.25C166.375 49.2083 165.812 46.8125 165.812 44.0625C165.812 41.1042 166.417 38.5417 167.625 36.375C168.833 34.2083 170.417 32.5417 172.375 31.375C174.333 30.1667 176.438 29.5833 178.688 29.625C181.938 29.6667 184.479 30.75 186.312 32.875C188.146 35 189.062 38 189.062 41.875V43H169.875V40.25H184.938L184.25 41.0625V39.75C184.25 37.3333 183.708 35.4792 182.625 34.1875C181.542 32.8958 180.062 32.25 178.188 32.25C177.021 32.25 175.896 32.6042 174.812 33.3125C173.729 33.9792 172.854 35.0208 172.188 36.4375C171.521 37.8125 171.188 39.5625 171.188 41.6875V42.4375C171.188 45.8542 172.021 48.5208 173.688 50.4375C175.396 52.3542 177.583 53.3125 180.25 53.3125C181.708 53.3125 183.021 53.0208 184.188 52.4375C185.354 51.8542 186.479 50.9167 187.562 49.625L189.125 51.0625C187.958 53.2292 186.479 54.8542 184.688 55.9375C182.896 56.9792 180.896 57.5 178.688 57.5Z" fill="black"/>
<path d="M41.856 168.024C30.5067 168.024 21.4187 165.891 14.592 161.624C7.76533 157.272 4.352 150.659 4.352 141.784C4.352 137.091 5.16267 133.507 6.784 131.032C8.40533 128.557 10.7947 127.32 13.952 127.32C16.256 127.32 18.1333 127.917 19.584 129.112C21.0347 130.307 21.76 131.843 21.76 133.72C21.76 135.427 21.632 136.92 21.376 138.2C21.376 138.541 21.2907 139.139 21.12 139.992C21.0347 140.845 20.992 141.741 20.992 142.68C20.992 146.52 22.912 149.379 26.752 151.256C30.6773 153.133 36.1387 154.072 43.136 154.072C50.3893 154.072 56.064 152.792 60.16 150.232C64.256 147.587 66.304 143.917 66.304 139.224C66.304 136.323 65.3653 133.848 63.488 131.8C61.6107 129.667 59.264 127.917 56.448 126.552C53.632 125.101 49.664 123.352 44.544 121.304C37.9733 118.744 32.5973 116.312 28.416 114.008C24.32 111.704 20.7787 108.589 17.792 104.664C14.8907 100.653 13.44 95.704 13.44 89.816C13.44 83.672 15.0613 78.2107 18.304 73.432C21.632 68.6533 26.368 64.9413 32.512 62.296C38.7413 59.6507 46.0373 58.328 54.4 58.328C60.6293 58.328 66.3467 59.2667 71.552 61.144C76.7573 62.936 80.896 65.7093 83.968 69.464C87.1253 73.2187 88.704 77.8267 88.704 83.288C88.704 88.664 87.8933 92.7173 86.272 95.448C84.6507 98.1787 82.2613 99.544 79.104 99.544C76.8853 99.544 75.008 98.8613 73.472 97.496C72.0213 96.1307 71.296 94.5093 71.296 92.632C71.296 91.0107 71.424 89.5173 71.68 88.152C71.936 85.592 72.064 83.9707 72.064 83.288C72.064 79.704 70.3147 76.9733 66.816 75.096C63.3173 73.2187 58.9653 72.28 53.76 72.28C46.4213 72.28 40.7893 73.6453 36.864 76.376C33.024 79.0213 31.104 82.776 31.104 87.64C31.104 90.8827 32.0853 93.656 34.048 95.96C36.096 98.264 38.6133 100.184 41.6 101.72C44.5867 103.256 48.768 105.091 54.144 107.224C60.6293 109.869 65.8347 112.259 69.76 114.392C73.6853 116.525 77.0133 119.427 79.744 123.096C82.56 126.765 83.968 131.288 83.968 136.664C83.968 146.733 80.128 154.499 72.448 159.96C64.8533 165.336 54.656 168.024 41.856 168.024ZM110.638 167.64C105.347 167.64 101.123 165.72 97.966 161.88C94.8087 158.04 93.23 153.005 93.23 146.776C93.23 139.949 94.8087 133.507 97.966 127.448C101.123 121.304 105.305 116.397 110.51 112.728C115.801 108.973 121.39 107.096 127.278 107.096C129.155 107.096 130.393 107.48 130.99 108.248C131.673 108.931 132.227 110.211 132.654 112.088C134.446 111.747 136.323 111.576 138.286 111.576C142.467 111.576 144.558 113.069 144.558 116.056C144.558 117.848 143.918 122.115 142.638 128.856C140.675 138.669 139.694 145.496 139.694 149.336C139.694 150.616 139.993 151.64 140.59 152.408C141.273 153.176 142.126 153.56 143.15 153.56C144.771 153.56 146.734 152.536 149.038 150.488C151.342 148.355 154.457 144.941 158.382 140.248C159.406 139.053 160.558 138.456 161.838 138.456C162.947 138.456 163.801 138.968 164.398 139.992C165.081 141.016 165.422 142.424 165.422 144.216C165.422 147.629 164.611 150.275 162.99 152.152C159.491 156.504 155.779 160.173 151.854 163.16C147.929 166.147 144.131 167.64 140.462 167.64C137.646 167.64 135.043 166.701 132.654 164.824C130.35 162.861 128.601 160.216 127.406 156.888C122.969 164.056 117.379 167.64 110.638 167.64ZM115.246 154.712C117.123 154.712 118.915 153.603 120.622 151.384C122.329 149.165 123.566 146.221 124.334 142.552L129.07 119C125.486 119.085 122.158 120.451 119.086 123.096C116.099 125.656 113.71 129.069 111.918 133.336C110.126 137.603 109.23 142.125 109.23 146.904C109.23 149.549 109.742 151.512 110.766 152.792C111.875 154.072 113.369 154.712 115.246 154.712ZM164.107 167.64C160.864 167.64 158.56 165.933 157.195 162.52C155.915 159.107 155.275 153.645 155.275 146.136C155.275 135.043 156.854 124.504 160.011 114.52C160.779 112.045 162.016 110.253 163.723 109.144C165.515 107.949 167.99 107.352 171.147 107.352C172.854 107.352 174.048 107.565 174.731 107.992C175.414 108.419 175.755 109.229 175.755 110.424C175.755 111.789 175.115 114.861 173.835 119.64C172.982 123.053 172.299 126.04 171.787 128.6C171.275 131.075 170.848 134.189 170.507 137.944C172.811 131.288 175.542 125.656 178.699 121.048C181.942 116.44 185.227 113.027 188.555 110.808C191.968 108.504 195.168 107.352 198.155 107.352C201.142 107.352 203.232 108.035 204.427 109.4C205.707 110.765 206.347 112.856 206.347 115.672C206.347 118.403 205.536 123.352 203.915 130.52C203.232 133.592 202.763 135.896 202.507 137.432C206.774 126.936 211.51 119.299 216.715 114.52C221.92 109.741 226.784 107.352 231.307 107.352C236.854 107.352 239.627 110.125 239.627 115.672C239.627 119 238.688 125.016 236.811 133.72C235.19 141.144 234.379 146.051 234.379 148.44C234.379 151.853 235.616 153.56 238.091 153.56C239.798 153.56 241.803 152.536 244.107 150.488C246.496 148.355 249.654 144.941 253.579 140.248C254.603 139.053 255.755 138.456 257.035 138.456C258.144 138.456 258.998 138.968 259.595 139.992C260.278 141.016 260.619 142.424 260.619 144.216C260.619 147.629 259.808 150.275 258.187 152.152C254.518 156.675 250.55 160.387 246.283 163.288C242.102 166.189 237.323 167.64 231.947 167.64C227.595 167.64 224.31 166.403 222.091 163.928C219.872 161.368 218.763 157.699 218.763 152.92C218.763 150.531 219.36 146.264 220.555 140.12C221.664 134.744 222.219 131.032 222.219 128.984C222.219 127.619 221.75 126.936 220.811 126.936C219.702 126.936 218.123 128.387 216.075 131.288C214.027 134.104 211.979 137.859 209.931 142.552C207.883 147.245 206.219 152.195 204.939 157.4C204 161.496 202.891 164.227 201.611 165.592C200.416 166.957 198.454 167.64 195.723 167.64C192.907 167.64 190.774 166.317 189.323 163.672C187.958 160.941 187.275 157.656 187.275 153.816C187.275 150.573 187.702 145.88 188.555 139.736C189.238 134.275 189.579 130.691 189.579 128.984C189.579 127.619 189.11 126.936 188.171 126.936C186.891 126.936 185.27 128.472 183.307 131.544C181.344 134.616 179.424 138.541 177.547 143.32C175.755 148.099 174.304 152.792 173.195 157.4C172.256 161.411 171.147 164.141 169.867 165.592C168.672 166.957 166.752 167.64 164.107 167.64ZM315.549 127.704C316.658 127.704 317.512 128.259 318.109 129.368C318.706 130.477 319.005 131.885 319.005 133.592C319.005 137.688 317.768 140.12 315.293 140.888C310.173 142.68 304.541 143.704 298.397 143.96C296.776 151.128 293.576 156.888 288.797 161.24C284.018 165.507 278.6 167.64 272.541 167.64C267.421 167.64 263.026 166.403 259.357 163.928C255.773 161.453 253.042 158.168 251.165 154.072C249.288 149.976 248.349 145.539 248.349 140.76C248.349 134.275 249.586 128.515 252.061 123.48C254.536 118.36 257.949 114.392 262.301 111.576C266.653 108.675 271.474 107.224 276.765 107.224C283.25 107.224 288.456 109.485 292.381 114.008C296.392 118.445 298.738 123.949 299.421 130.52C303.432 130.264 308.21 129.411 313.757 127.96C314.44 127.789 315.037 127.704 315.549 127.704ZM273.565 154.072C276.296 154.072 278.642 152.963 280.605 150.744C282.653 148.525 284.018 145.325 284.701 141.144C282.056 139.352 280.008 137.005 278.557 134.104C277.192 131.203 276.509 128.131 276.509 124.888C276.509 123.523 276.637 122.157 276.893 120.792H276.253C272.84 120.792 269.981 122.456 267.677 125.784C265.458 129.027 264.349 133.635 264.349 139.608C264.349 144.301 265.245 147.885 267.037 150.36C268.914 152.835 271.09 154.072 273.565 154.072ZM317.107 167.64C313.864 167.64 311.56 165.933 310.195 162.52C308.915 159.107 308.275 153.645 308.275 146.136C308.275 135.043 309.854 124.504 313.011 114.52C313.779 112.045 315.016 110.253 316.723 109.144C318.515 107.949 320.99 107.352 324.147 107.352C325.854 107.352 327.048 107.565 327.731 107.992C328.414 108.419 328.755 109.229 328.755 110.424C328.755 111.789 328.115 114.861 326.835 119.64C325.982 123.053 325.299 126.04 324.787 128.6C324.275 131.16 323.848 134.317 323.507 138.072C326.323 130.733 329.48 124.76 332.979 120.152C336.478 115.544 339.891 112.259 343.219 110.296C346.632 108.333 349.747 107.352 352.563 107.352C358.11 107.352 360.883 110.125 360.883 115.672C360.883 116.781 360.499 119.469 359.731 123.736C359.048 127.149 358.707 129.283 358.707 130.136C358.707 133.123 359.774 134.616 361.907 134.616C364.296 134.616 367.368 132.739 371.123 128.984C372.232 127.875 373.384 127.32 374.579 127.32C375.688 127.32 376.542 127.832 377.139 128.856C377.822 129.795 378.163 131.075 378.163 132.696C378.163 135.853 377.31 138.328 375.603 140.12C373.214 142.595 370.398 144.728 367.155 146.52C363.998 148.227 360.627 149.08 357.043 149.08C352.52 149.08 349.064 147.928 346.675 145.624C344.371 143.32 343.219 140.205 343.219 136.28C343.219 135 343.347 133.72 343.603 132.44C343.774 130.733 343.859 129.581 343.859 128.984C343.859 127.619 343.39 126.936 342.451 126.936C341.171 126.936 339.464 128.387 337.331 131.288C335.283 134.104 333.235 137.859 331.187 142.552C329.139 147.245 327.475 152.195 326.195 157.4C325.256 161.411 324.147 164.141 322.867 165.592C321.672 166.957 319.752 167.64 317.107 167.64ZM382.013 167.64C376.722 167.64 372.498 165.72 369.341 161.88C366.184 158.04 364.605 153.005 364.605 146.776C364.605 139.949 366.184 133.507 369.341 127.448C372.498 121.304 376.68 116.397 381.885 112.728C387.176 108.973 392.765 107.096 398.653 107.096C400.53 107.096 401.768 107.48 402.365 108.248C403.048 108.931 403.602 110.211 404.029 112.088C405.821 111.747 407.698 111.576 409.661 111.576C413.842 111.576 415.933 113.069 415.933 116.056C415.933 117.848 415.293 122.115 414.013 128.856C412.05 138.669 411.069 145.496 411.069 149.336C411.069 150.616 411.368 151.64 411.965 152.408C412.648 153.176 413.501 153.56 414.525 153.56C416.146 153.56 418.109 152.536 420.413 150.488C422.717 148.355 425.832 144.941 429.757 140.248C430.781 139.053 431.933 138.456 433.213 138.456C434.322 138.456 435.176 138.968 435.773 139.992C436.456 141.016 436.797 142.424 436.797 144.216C436.797 147.629 435.986 150.275 434.365 152.152C430.866 156.504 427.154 160.173 423.229 163.16C419.304 166.147 415.506 167.64 411.837 167.64C409.021 167.64 406.418 166.701 404.029 164.824C401.725 162.861 399.976 160.216 398.781 156.888C394.344 164.056 388.754 167.64 382.013 167.64ZM386.621 154.712C388.498 154.712 390.29 153.603 391.997 151.384C393.704 149.165 394.941 146.221 395.709 142.552L400.445 119C396.861 119.085 393.533 120.451 390.461 123.096C387.474 125.656 385.085 129.069 383.293 133.336C381.501 137.603 380.605 142.125 380.605 146.904C380.605 149.549 381.117 151.512 382.141 152.792C383.25 154.072 384.744 154.712 386.621 154.712ZM443.162 98.904C439.578 98.904 436.89 98.0933 435.098 96.472C433.306 94.7653 432.41 92.4187 432.41 89.432C432.41 86.4453 433.562 83.9707 435.866 82.008C438.255 79.96 441.199 78.936 444.698 78.936C447.855 78.936 450.415 79.704 452.378 81.24C454.341 82.776 455.322 84.952 455.322 87.768C455.322 91.1813 454.213 93.912 451.994 95.96C449.775 97.9227 446.831 98.904 443.162 98.904ZM442.138 167.64C436.591 167.64 432.538 165.677 429.978 161.752C427.503 157.827 426.266 152.621 426.266 146.136C426.266 142.296 426.735 137.389 427.674 131.416C428.698 125.357 429.978 119.725 431.514 114.52C432.282 111.789 433.306 109.912 434.586 108.888C435.866 107.864 437.914 107.352 440.73 107.352C445.082 107.352 447.258 108.803 447.258 111.704C447.258 113.837 446.447 118.787 444.826 126.552C442.778 135.939 441.754 142.296 441.754 145.624C441.754 148.184 442.095 150.147 442.778 151.512C443.461 152.877 444.613 153.56 446.234 153.56C447.77 153.56 449.69 152.493 451.994 150.36C454.298 148.227 457.37 144.856 461.21 140.248C462.234 139.053 463.386 138.456 464.666 138.456C465.775 138.456 466.629 138.968 467.226 139.992C467.909 141.016 468.25 142.424 468.25 144.216C468.25 147.629 467.439 150.275 465.818 152.152C457.37 162.477 449.477 167.64 442.138 167.64ZM481.702 170.456C477.265 170.456 473.851 169.432 471.462 167.384C469.158 165.336 468.006 163.032 468.006 160.472C468.006 158.253 468.817 156.333 470.438 154.712C472.059 153.091 474.449 152.28 477.606 152.28C478.715 152.28 479.995 152.408 481.446 152.664C482.982 152.835 484.134 152.963 484.902 153.048C484.817 150.829 484.305 148.739 483.366 146.776C482.513 144.813 481.403 142.936 480.038 141.144C478.673 139.267 477.393 137.645 476.198 136.28C473.553 141.315 470.907 145.496 468.262 148.824C465.702 152.152 462.886 155.309 459.814 158.296C458.278 159.832 456.657 160.6 454.95 160.6C453.585 160.6 452.475 160.131 451.622 159.192C450.769 158.168 450.342 156.931 450.342 155.48C450.342 153.773 450.939 152.195 452.134 150.744L453.798 148.696C458.491 142.893 462.033 138.115 464.422 134.36C465.958 131.885 467.494 128.941 469.03 125.528C470.651 122.115 472.742 117.464 475.302 111.576C476.923 107.821 480.294 105.944 485.414 105.944C487.803 105.944 489.467 106.157 490.406 106.584C491.345 107.011 491.814 107.693 491.814 108.632C491.814 109.144 491.643 109.955 491.302 111.064C490.961 112.173 490.491 113.283 489.894 114.392C488.358 117.464 487.59 120.067 487.59 122.2C487.59 123.48 488.017 124.888 488.87 126.424C489.809 127.96 491.217 129.88 493.094 132.184C495.825 135.768 497.873 138.84 499.238 141.4C500.689 143.875 501.414 146.605 501.414 149.592C501.414 153.176 500.561 156.589 498.854 159.832C497.233 162.989 494.929 165.549 491.942 167.512C488.955 169.475 485.542 170.456 481.702 170.456Z" fill="black"/>
<path d="M264.188 224.312C263.604 224.229 262.938 224.167 262.188 224.125C261.479 224.083 260.771 224.042 260.062 224C259.354 224 258.708 224 258.125 224H238.125L238 221.625L241.812 220.75C241.854 220.542 241.896 220.062 241.938 219.312C241.979 218.562 242 217.542 242 216.25C242.042 214.958 242.062 213.396 242.062 211.562V199.812C242.062 197.938 242.062 196.354 242.062 195.062C242.062 193.771 242.042 192.75 242 192C241.958 191.25 241.896 190.792 241.812 190.625L238 189.688L238.125 187.312H252.812L253 189.812L247.812 190.625C247.729 190.75 247.646 191.167 247.562 191.875C247.521 192.542 247.479 193.542 247.438 194.875C247.438 196.167 247.438 197.812 247.438 199.812V211.562C247.438 213.729 247.458 215.625 247.5 217.25C247.542 218.833 247.583 219.854 247.625 220.312C248.208 220.354 248.812 220.396 249.438 220.438C250.062 220.479 250.771 220.5 251.562 220.5H256.25C257.208 220.5 258.021 220.479 258.688 220.438C259.354 220.396 260.021 220.333 260.688 220.25L263.938 214.125L266.75 214.75L264.188 224.312ZM282.438 224.5C280.021 224.5 277.833 223.958 275.875 222.875C273.958 221.792 272.417 220.25 271.25 218.25C270.125 216.208 269.562 213.812 269.562 211.062C269.562 208.104 270.167 205.542 271.375 203.375C272.583 201.208 274.167 199.542 276.125 198.375C278.083 197.167 280.188 196.583 282.438 196.625C285.688 196.667 288.229 197.75 290.062 199.875C291.896 202 292.812 205 292.812 208.875V210H273.625V207.25H288.688L288 208.062V206.75C288 204.333 287.458 202.479 286.375 201.188C285.292 199.896 283.812 199.25 281.938 199.25C280.771 199.25 279.646 199.604 278.562 200.312C277.479 200.979 276.604 202.021 275.938 203.438C275.271 204.812 274.938 206.562 274.938 208.688V209.438C274.938 212.854 275.771 215.521 277.438 217.438C279.146 219.354 281.333 220.312 284 220.312C285.458 220.312 286.771 220.021 287.938 219.438C289.104 218.854 290.229 217.917 291.312 216.625L292.875 218.062C291.708 220.229 290.229 221.854 288.438 222.938C286.646 223.979 284.646 224.5 282.438 224.5ZM309.625 238.25C305.792 238.25 302.75 237.625 300.5 236.375C298.25 235.125 297.125 233.458 297.125 231.375C297.125 229.958 297.688 228.646 298.812 227.438C299.938 226.229 301.75 225 304.25 223.75L306.625 224.25C305.25 225.042 304.188 225.958 303.438 227C302.688 228.083 302.312 229.229 302.312 230.438C302.312 232.104 302.979 233.396 304.312 234.312C305.688 235.229 307.542 235.688 309.875 235.688C312.583 235.688 314.771 235.104 316.438 233.938C318.104 232.771 318.938 231.271 318.938 229.438C318.938 228.021 318.417 226.958 317.375 226.25C316.375 225.583 314.708 225.167 312.375 225L305.688 224.438L304.75 224.188C303.208 224.188 301.896 223.792 300.812 223C299.771 222.167 299.25 221.167 299.25 220C299.25 218.875 299.792 217.771 300.875 216.688C301.958 215.604 303.458 214.646 305.375 213.812L306.188 215.062C305.396 215.604 304.812 216.104 304.438 216.562C304.062 216.979 303.875 217.396 303.875 217.812C303.875 218.396 304.125 218.896 304.625 219.312C305.167 219.729 305.917 219.979 306.875 220.062L314.938 220.875C317.812 221.167 320 221.896 321.5 223.062C323 224.229 323.75 225.896 323.75 228.062C323.75 229.979 323.125 231.708 321.875 233.25C320.625 234.792 318.938 236 316.812 236.875C314.688 237.792 312.292 238.25 309.625 238.25ZM310.125 216.25C307.917 216.25 305.938 215.854 304.188 215.062C302.479 214.271 301.146 213.188 300.188 211.812C299.229 210.396 298.75 208.792 298.75 207C298.75 205.042 299.25 203.292 300.25 201.75C301.25 200.167 302.604 198.938 304.312 198.062C306.021 197.146 307.938 196.688 310.062 196.688C312.188 196.688 314.083 197.104 315.75 197.938C317.458 198.771 318.792 199.938 319.75 201.438C320.708 202.896 321.188 204.562 321.188 206.438C321.188 208.271 320.688 209.938 319.688 211.438C318.729 212.938 317.417 214.125 315.75 215C314.083 215.833 312.208 216.25 310.125 216.25ZM310.438 213.75C312.146 213.75 313.5 213.125 314.5 211.875C315.5 210.625 316 208.958 316 206.875C316 204.542 315.438 202.667 314.312 201.25C313.229 199.833 311.792 199.125 310 199.125C308.292 199.125 306.896 199.792 305.812 201.125C304.729 202.458 304.188 204.188 304.188 206.312C304.188 208.521 304.75 210.312 305.875 211.688C307.042 213.062 308.562 213.75 310.438 213.75ZM324.938 201.188L317.5 200.688L315.062 198.188L324.938 197.188V201.188ZM341.188 224.5C338.771 224.5 336.583 223.958 334.625 222.875C332.708 221.792 331.167 220.25 330 218.25C328.875 216.208 328.312 213.812 328.312 211.062C328.312 208.104 328.917 205.542 330.125 203.375C331.333 201.208 332.917 199.542 334.875 198.375C336.833 197.167 338.938 196.583 341.188 196.625C344.438 196.667 346.979 197.75 348.812 199.875C350.646 202 351.562 205 351.562 208.875V210H332.375V207.25H347.438L346.75 208.062V206.75C346.75 204.333 346.208 202.479 345.125 201.188C344.042 199.896 342.562 199.25 340.688 199.25C339.521 199.25 338.396 199.604 337.312 200.312C336.229 200.979 335.354 202.021 334.688 203.438C334.021 204.812 333.688 206.562 333.688 208.688V209.438C333.688 212.854 334.521 215.521 336.188 217.438C337.896 219.354 340.083 220.312 342.75 220.312C344.208 220.312 345.521 220.021 346.688 219.438C347.854 218.854 348.979 217.917 350.062 216.625L351.625 218.062C350.458 220.229 348.979 221.854 347.188 222.938C345.396 223.979 343.396 224.5 341.188 224.5ZM355.75 224L355.625 221.75L359.5 220.812C359.542 220.521 359.562 220.125 359.562 219.625C359.604 219.125 359.646 218.438 359.688 217.562C359.729 216.688 359.75 215.542 359.75 214.125L359.812 209.312C359.812 207.938 359.75 206.583 359.625 205.25C359.542 203.875 359.438 202.792 359.312 202L355.312 201.125V199.062L363.688 196.75L364.75 197.75L364.438 201.062L364.625 201.125C366.083 199.542 367.521 198.396 368.938 197.688C370.354 196.979 371.896 196.625 373.562 196.625C375.104 196.625 376.542 197.021 377.875 197.812C379.25 198.562 380.354 199.729 381.188 201.312C382.062 202.896 382.5 204.917 382.5 207.375V214.312C382.5 215.812 382.521 217.167 382.562 218.375C382.646 219.583 382.75 220.396 382.875 220.812L386.75 221.75L386.562 224H374L373.875 221.75L377.5 220.812C377.542 220.479 377.583 220.062 377.625 219.562C377.667 219.062 377.688 218.438 377.688 217.688C377.729 216.896 377.75 215.917 377.75 214.75V208C377.75 206.125 377.417 204.646 376.75 203.562C376.125 202.438 375.333 201.646 374.375 201.188C373.417 200.688 372.438 200.438 371.438 200.438C370.062 200.438 368.771 200.792 367.562 201.5C366.396 202.167 365.396 203.104 364.562 204.312V213.688C364.562 215.604 364.583 217.167 364.625 218.375C364.708 219.542 364.792 220.354 364.875 220.812L368.75 221.75L368.562 224H355.75ZM412.125 224.688L411.188 223.875L411.25 219.812L411.062 219.75C409.812 221.5 408.521 222.729 407.188 223.438C405.896 224.146 404.521 224.5 403.062 224.5C400.688 224.5 398.562 223.958 396.688 222.875C394.854 221.75 393.396 220.208 392.312 218.25C391.229 216.292 390.688 214.042 390.688 211.5C390.688 209.292 391.062 207.271 391.812 205.438C392.562 203.604 393.583 202.042 394.875 200.75C396.208 199.417 397.708 198.396 399.375 197.688C401.042 196.979 402.771 196.625 404.562 196.625C405.729 196.625 406.917 196.771 408.125 197.062C409.333 197.354 410.354 197.812 411.188 198.438C411.188 197.688 411.167 196.708 411.125 195.5C411.125 194.292 411.104 193.042 411.062 191.75C411.062 190.417 411.042 189.25 411 188.25C411 187.208 410.979 186.5 410.938 186.125L406.062 185.25L405.938 183.188L415.125 180.625L416.25 181.5C416.167 184.083 416.104 186.583 416.062 189C416.021 191.417 416 193.938 416 196.562L415.938 210.938C415.938 213.062 415.979 214.896 416.062 216.438C416.188 217.938 416.271 219 416.312 219.625L420.312 220.625V222.688L412.125 224.688ZM404.625 220.312C405.833 220.312 406.958 220.062 408 219.562C409.042 219.021 410.104 218.083 411.188 216.75V203.312C410.396 201.896 409.396 200.896 408.188 200.312C406.979 199.729 405.771 199.438 404.562 199.438C401.938 199.438 399.875 200.417 398.375 202.375C396.917 204.292 396.188 206.792 396.188 209.875C396.188 213.167 397 215.729 398.625 217.562C400.292 219.396 402.292 220.312 404.625 220.312ZM437.375 224.5C434.958 224.5 432.771 223.958 430.812 222.875C428.896 221.792 427.354 220.25 426.188 218.25C425.062 216.208 424.5 213.812 424.5 211.062C424.5 208.104 425.104 205.542 426.312 203.375C427.521 201.208 429.104 199.542 431.062 198.375C433.021 197.167 435.125 196.583 437.375 196.625C440.625 196.667 443.167 197.75 445 199.875C446.833 202 447.75 205 447.75 208.875V210H428.562V207.25H443.625L442.938 208.062V206.75C442.938 204.333 442.396 202.479 441.312 201.188C440.229 199.896 438.75 199.25 436.875 199.25C435.708 199.25 434.583 199.604 433.5 200.312C432.417 200.979 431.542 202.021 430.875 203.438C430.208 204.812 429.875 206.562 429.875 208.688V209.438C429.875 212.854 430.708 215.521 432.375 217.438C434.083 219.354 436.271 220.312 438.938 220.312C440.396 220.312 441.708 220.021 442.875 219.438C444.042 218.854 445.167 217.917 446.25 216.625L447.812 218.062C446.646 220.229 445.167 221.854 443.375 222.938C441.583 223.979 439.583 224.5 437.375 224.5ZM452.062 224L451.875 221.75L455.75 220.812C455.792 220.604 455.833 220.229 455.875 219.688C455.917 219.146 455.938 218.417 455.938 217.5C455.979 216.583 456 215.458 456 214.125L456.062 209.25C456.062 207.875 456 206.521 455.875 205.188C455.792 203.854 455.688 202.792 455.562 202L451.562 201.125V199.062L459.938 196.75L460.812 197.625L460.562 202.875L460.75 202.938C462 200.521 463.271 198.896 464.562 198.062C465.854 197.188 467.062 196.75 468.188 196.75C469.146 196.75 469.938 197 470.562 197.5C471.229 197.958 471.562 198.667 471.562 199.625C471.562 200.625 471.208 201.396 470.5 201.938C469.833 202.438 468.979 202.688 467.938 202.688C467.188 202.688 466.458 202.521 465.75 202.188C465.083 201.854 464.438 201.396 463.812 200.812L464.938 201.188C464.146 201.688 463.396 202.396 462.688 203.312C461.979 204.188 461.333 205.292 460.75 206.625L460.812 212.438C460.854 213.479 460.896 214.562 460.938 215.688C460.979 216.812 461.021 217.833 461.062 218.75C461.104 219.625 461.146 220.312 461.188 220.812L466.625 221.625L466.5 224H452.062ZM486.562 224.25L475.562 200.312L472.625 199.375L472.812 197.125H484.938L485.062 199.375L481.188 200.312L489.688 219.312L486.562 224.25ZM502.562 197.125L502.75 199.375L499.812 200.312L489.188 222.625L484.188 233C483.271 234.917 482.292 236.271 481.25 237.062C480.25 237.854 479.083 238.25 477.75 238.25C476.708 238.25 475.854 238 475.188 237.5C474.562 237 474.25 236.354 474.25 235.562C474.25 234.938 474.5 234.333 475 233.75C475.5 233.208 476.271 232.792 477.312 232.5L483.125 230.75L480.25 233.875L487.188 220.5L487.875 219.375L496 200.312L492.125 199.375L492.25 197.125H502.562Z" fill="black"/>
<path d="M166.848 278.252L164.026 279.204L163.788 278.966C163.833 276.586 163.879 274.206 163.924 271.826C163.992 269.423 164.026 267.021 164.026 264.618C164.026 263.621 164.003 262.623 163.958 261.626C163.935 260.606 163.901 259.597 163.856 258.6C163.811 257.92 163.539 257.467 163.04 257.24C162.564 257.013 161.997 256.855 161.34 256.764V256.152L161.578 255.914H170.316C173.104 255.914 175.11 256.401 176.334 257.376C177.558 258.328 178.17 259.711 178.17 261.524C178.17 263.609 177.445 265.377 175.994 266.828C175.246 267.599 174.305 268.143 173.172 268.46C172.039 268.755 170.917 268.947 169.806 269.038C169.489 269.061 169.069 269.083 168.548 269.106C168.049 269.106 167.596 269.151 167.188 269.242C166.803 269.31 166.61 269.457 166.61 269.684C166.61 269.956 166.621 270.557 166.644 271.486C166.689 272.415 166.735 273.492 166.78 274.716C166.825 275.917 166.848 277.096 166.848 278.252ZM169.024 257.24H167.12C167.007 257.24 166.927 257.285 166.882 257.376C166.837 257.444 166.814 257.523 166.814 257.614C166.746 259.11 166.689 260.753 166.644 262.544C166.621 264.312 166.61 265.933 166.61 267.406C166.61 267.565 166.655 267.678 166.746 267.746C166.837 267.791 166.916 267.814 166.984 267.814C169.341 267.814 171.245 267.281 172.696 266.216C174.169 265.151 174.906 263.677 174.906 261.796C174.906 260.617 174.634 259.699 174.09 259.042C173.546 258.385 172.821 257.92 171.914 257.648C171.03 257.376 170.067 257.24 169.024 257.24ZM193.108 268.154L183.52 272.302C183.588 273.005 183.769 273.73 184.064 274.478C184.381 275.226 184.846 275.849 185.458 276.348C186.092 276.847 186.908 277.096 187.906 277.096C188.835 277.096 189.742 276.858 190.626 276.382C191.532 275.906 192.371 275.373 193.142 274.784L193.516 274.852L193.958 275.464C193.255 276.121 192.484 276.756 191.646 277.368C190.83 277.957 189.957 278.445 189.028 278.83C188.121 279.215 187.18 279.408 186.206 279.408C185.072 279.408 184.132 279.17 183.384 278.694C182.658 278.218 182.092 277.595 181.684 276.824C181.276 276.031 180.981 275.158 180.8 274.206C180.641 273.231 180.562 272.268 180.562 271.316C180.562 270.319 180.686 269.344 180.936 268.392C181.185 267.44 181.638 266.579 182.296 265.808C183.134 264.833 184.132 264.085 185.288 263.564C186.466 263.02 187.702 262.748 188.994 262.748C190.467 262.748 191.634 263.201 192.496 264.108C193.38 265.015 193.822 266.125 193.822 267.44C193.822 267.644 193.742 267.791 193.584 267.882C193.448 267.973 193.289 268.063 193.108 268.154ZM184.948 265.536C184.29 266.239 183.86 266.975 183.656 267.746C183.474 268.517 183.384 269.321 183.384 270.16C183.384 270.251 183.384 270.353 183.384 270.466C183.406 270.557 183.429 270.659 183.452 270.772L183.588 270.908L190.456 268.188C190.569 268.143 190.671 268.052 190.762 267.916C190.852 267.78 190.898 267.576 190.898 267.304C190.898 266.828 190.773 266.341 190.524 265.842C190.274 265.343 189.912 264.935 189.436 264.618C188.982 264.278 188.438 264.108 187.804 264.108C187.237 264.108 186.704 264.233 186.206 264.482C185.73 264.731 185.31 265.083 184.948 265.536ZM198.749 259.212L201.605 258.226L201.843 258.396C201.752 259.371 201.673 260.311 201.605 261.218C201.537 262.102 201.491 263.043 201.469 264.04L201.673 264.21H206.025L206.195 264.346L205.923 265.23L205.719 265.4H201.673L201.469 265.604V272.03C201.469 272.823 201.514 273.617 201.605 274.41C201.718 275.203 201.945 275.861 202.285 276.382C202.647 276.881 203.18 277.13 203.883 277.13C204.313 277.13 204.812 276.983 205.379 276.688C205.945 276.371 206.478 276.053 206.977 275.736L207.385 275.804L207.623 276.314C206.852 277.039 205.979 277.719 205.005 278.354C204.03 278.989 203.044 279.306 202.047 279.306C201.661 279.306 201.231 279.227 200.755 279.068C200.301 278.932 199.916 278.66 199.599 278.252C199.372 277.935 199.202 277.595 199.089 277.232C198.975 276.869 198.896 276.303 198.851 275.532C198.828 274.761 198.817 273.617 198.817 272.098V265.638L198.613 265.4H194.805L194.635 265.23L194.873 264.414L195.077 264.21H198.613L198.817 264.006C198.817 263.145 198.817 262.238 198.817 261.286C198.817 260.334 198.794 259.643 198.749 259.212ZM220.807 264.346L222.609 263.292L222.779 263.462C222.643 265.933 222.575 268.403 222.575 270.874C222.575 271.395 222.552 272.019 222.507 272.744C222.484 273.469 222.495 274.172 222.541 274.852C222.586 275.532 222.711 276.099 222.915 276.552C223.119 277.005 223.447 277.232 223.901 277.232C224.15 277.232 224.49 277.164 224.921 277.028C225.351 276.892 225.748 276.756 226.111 276.62L226.349 277.436C225.895 277.708 225.408 278.003 224.887 278.32C224.365 278.615 223.855 278.864 223.357 279.068C222.858 279.295 222.427 279.408 222.065 279.408C221.43 279.408 220.977 279.215 220.705 278.83C220.433 278.445 220.24 277.969 220.127 277.402L219.617 277.266C218.778 277.81 217.894 278.309 216.965 278.762C216.035 279.193 215.072 279.408 214.075 279.408C213.123 279.408 212.329 279.204 211.695 278.796C211.06 278.388 210.55 277.855 210.165 277.198C209.779 276.541 209.496 275.827 209.315 275.056C209.156 274.263 209.077 273.481 209.077 272.71C209.077 271.509 209.224 270.341 209.519 269.208C209.836 268.075 210.312 267.055 210.947 266.148C211.604 265.219 212.443 264.493 213.463 263.972C214.483 263.428 215.718 263.156 217.169 263.156C217.713 263.156 218.313 263.258 218.971 263.462C219.651 263.666 220.263 263.961 220.807 264.346ZM220.059 275.634V267.814C220.059 267.361 220.036 266.93 219.991 266.522C219.945 266.114 219.787 265.763 219.515 265.468C219.22 265.151 218.869 264.89 218.461 264.686C218.053 264.459 217.633 264.346 217.203 264.346C215.956 264.346 214.879 264.777 213.973 265.638C213.587 266.001 213.191 266.669 212.783 267.644C212.397 268.619 212.182 269.967 212.137 271.69C212.114 272.393 212.171 273.107 212.307 273.832C212.443 274.535 212.703 275.181 213.089 275.77C213.451 276.337 213.939 276.711 214.551 276.892C215.185 277.073 215.82 277.164 216.455 277.164C217.112 277.164 217.747 277.005 218.359 276.688C218.993 276.371 219.56 276.019 220.059 275.634ZM246.37 275.362L246.812 275.702V276.076C246.064 276.869 245.236 277.617 244.33 278.32C243.446 279 242.494 279.34 241.474 279.34C240.68 279.34 240.102 278.989 239.74 278.286C239.4 277.583 239.23 276.813 239.23 275.974C239.23 275.362 239.241 274.671 239.264 273.9C239.286 273.107 239.309 272.359 239.332 271.656C239.354 270.931 239.366 270.364 239.366 269.956C239.366 269.095 239.298 268.313 239.162 267.61C239.026 266.885 238.742 266.318 238.312 265.91C237.904 265.479 237.28 265.264 236.442 265.264C235.512 265.264 234.64 265.491 233.824 265.944C233.008 266.375 232.271 266.828 231.614 267.304C231.614 269.163 231.602 271.033 231.58 272.914C231.557 274.773 231.546 276.62 231.546 278.456L229.098 279.204L228.894 278.864C229.007 276.62 229.109 274.376 229.2 272.132C229.29 269.888 229.347 267.644 229.37 265.4C229.37 263.677 229.37 262.181 229.37 260.912C229.37 259.62 229.143 258.668 228.69 258.056C228.531 257.852 228.168 257.682 227.602 257.546C227.035 257.387 226.525 257.263 226.072 257.172V256.56L226.242 256.424L231.614 255.846L231.818 256.084C231.75 257.535 231.704 259.076 231.682 260.708C231.682 262.317 231.682 263.904 231.682 265.468L231.954 265.74C232.951 265.128 234.028 264.55 235.184 264.006C236.34 263.439 237.541 263.156 238.788 263.156C239.037 263.156 239.388 263.235 239.842 263.394C240.295 263.553 240.68 263.791 240.998 264.108C241.519 264.584 241.78 265.377 241.78 266.488C241.802 267.576 241.814 268.8 241.814 270.16V272.676C241.814 273.016 241.802 273.424 241.78 273.9C241.78 274.376 241.814 274.841 241.882 275.294C241.95 275.747 242.086 276.133 242.29 276.45C242.516 276.745 242.856 276.892 243.31 276.892C243.967 276.892 244.556 276.711 245.078 276.348C245.622 275.985 246.052 275.657 246.37 275.362ZM276.453 255.574V257.206L276.181 257.444C274.753 257.376 273.608 257.319 272.747 257.274C271.886 257.229 271.217 257.195 270.741 257.172C270.265 257.149 269.902 257.138 269.653 257.138C269.426 257.115 269.222 257.104 269.041 257.104C268.814 257.104 268.678 257.761 268.633 259.076C268.61 260.368 268.599 262.045 268.599 264.108C268.599 265.468 268.622 266.998 268.667 268.698C268.712 270.398 268.769 272.098 268.837 273.798C268.905 275.498 268.973 277.039 269.041 278.422L265.641 279.34L265.335 279.034C265.471 276.881 265.573 274.727 265.641 272.574C265.732 270.398 265.777 268.233 265.777 266.08C265.777 265.377 265.777 264.584 265.777 263.7C265.777 262.816 265.766 261.943 265.743 261.082C265.743 260.198 265.732 259.427 265.709 258.77C265.709 258.09 265.709 257.625 265.709 257.376C265.709 257.24 265.607 257.172 265.403 257.172C264.995 257.172 264.145 257.195 262.853 257.24C261.584 257.285 260.008 257.342 258.127 257.41L257.855 257.172V255.54L258.093 255.302C258.75 255.325 259.294 255.359 259.725 255.404C260.178 255.427 260.609 255.461 261.017 255.506C261.425 255.529 261.89 255.551 262.411 255.574C262.932 255.597 263.578 255.619 264.349 255.642C265.142 255.665 266.14 255.676 267.341 255.676C268.61 255.676 270.038 255.642 271.625 255.574C273.212 255.483 274.753 255.404 276.249 255.336L276.453 255.574ZM283.518 257.75C283.495 258.317 283.28 258.781 282.872 259.144C282.486 259.484 282.022 259.654 281.478 259.654C280.934 259.654 280.469 259.461 280.084 259.076C279.698 258.691 279.506 258.226 279.506 257.682C279.506 257.093 279.744 256.628 280.22 256.288C280.696 255.948 281.183 255.778 281.682 255.778C282.271 255.778 282.724 255.982 283.042 256.39C283.359 256.775 283.518 257.229 283.518 257.75ZM283.042 265.672L282.77 272.812C282.77 274.059 282.872 275.033 283.076 275.736C283.28 276.439 283.676 276.79 284.266 276.79C284.923 276.79 285.49 276.643 285.966 276.348C286.464 276.031 286.94 275.668 287.394 275.26L287.836 275.6V275.974C287.45 276.473 286.997 276.983 286.476 277.504C285.977 278.003 285.433 278.422 284.844 278.762C284.277 279.102 283.676 279.272 283.042 279.272C282.566 279.272 282.112 279.181 281.682 279C281.274 278.841 280.945 278.49 280.696 277.946C280.446 277.402 280.322 276.575 280.322 275.464L280.526 267.95C280.526 267.066 280.435 266.363 280.254 265.842C280.095 265.321 279.789 265.06 279.336 265.06C278.973 265.06 278.531 265.185 278.01 265.434C277.488 265.661 277.024 265.899 276.616 266.148L276.174 265.536C276.944 264.924 277.76 264.346 278.622 263.802C279.506 263.258 280.276 262.986 280.934 262.986C281.704 262.986 282.248 263.247 282.566 263.768C282.883 264.289 283.042 264.924 283.042 265.672ZM293.182 269.956L297.738 265.774C298.622 264.958 299.291 264.346 299.744 263.938C300.197 263.53 300.549 263.235 300.798 263.054C301.047 262.85 301.308 262.669 301.58 262.51L303.144 263.496V263.87C301.875 264.618 300.628 265.423 299.404 266.284C298.203 267.145 297.035 268.052 295.902 269.004C295.789 269.095 295.653 269.208 295.494 269.344C295.358 269.48 295.29 269.593 295.29 269.684C295.29 269.775 295.324 269.865 295.392 269.956C295.46 270.047 295.517 270.137 295.562 270.228C296.061 270.863 296.616 271.543 297.228 272.268C297.863 272.993 298.497 273.685 299.132 274.342C299.767 274.977 300.356 275.498 300.9 275.906C301.444 276.314 301.886 276.518 302.226 276.518C302.793 276.518 303.28 276.393 303.688 276.144C304.119 275.895 304.515 275.577 304.878 275.192L305.524 275.872C305.252 276.235 304.889 276.688 304.436 277.232C304.005 277.753 303.507 278.218 302.94 278.626C302.396 279.034 301.818 279.238 301.206 279.238C300.707 279.238 300.277 279.125 299.914 278.898C299.551 278.649 299.087 278.207 298.52 277.572C298.52 277.572 298.35 277.357 298.01 276.926C297.693 276.473 297.262 275.895 296.718 275.192C296.174 274.489 295.585 273.753 294.95 272.982C294.315 272.211 293.692 271.486 293.08 270.806L292.672 271.044V278.558L290.258 279.238L290.054 279C290.122 276.325 290.201 273.673 290.292 271.044C290.405 268.415 290.462 265.763 290.462 263.088C290.462 262.227 290.439 261.411 290.394 260.64C290.349 259.869 290.269 259.257 290.156 258.804C289.997 258.283 289.691 257.931 289.238 257.75C288.807 257.546 288.139 257.399 287.232 257.308V256.594L287.402 256.458L292.842 255.676L292.74 255.914V269.956H293.182ZM319.077 263.36C319.145 263.315 319.236 263.292 319.349 263.292C319.666 263.292 320.006 263.609 320.369 264.244C320.732 264.879 320.913 265.695 320.913 266.692C320.913 267.621 320.72 268.517 320.335 269.378C319.95 270.217 319.519 271.021 319.043 271.792C318.272 273.016 317.422 274.172 316.493 275.26C315.586 276.348 314.634 277.402 313.637 278.422C313.456 278.603 313.263 278.796 313.059 279C312.855 279.204 312.708 279.329 312.617 279.374H311.801L309.455 270.602C309.206 269.627 308.934 268.732 308.639 267.916C308.367 267.077 308.084 266.409 307.789 265.91C307.494 265.389 307.166 265.128 306.803 265.128C306.44 265.128 306.089 265.196 305.749 265.332C305.409 265.445 305.046 265.615 304.661 265.842L304.355 265.026C304.967 264.595 305.658 264.165 306.429 263.734C307.222 263.281 307.948 263.054 308.605 263.054C309.194 263.054 309.659 263.303 309.999 263.802C310.339 264.278 310.634 264.969 310.883 265.876C311.155 266.76 311.45 267.814 311.767 269.038C311.903 269.537 312.062 270.194 312.243 271.01C312.424 271.803 312.617 272.597 312.821 273.39C313.048 274.183 313.263 274.852 313.467 275.396C313.694 275.94 313.898 276.212 314.079 276.212C314.17 276.212 314.294 276.121 314.453 275.94C314.612 275.759 314.759 275.6 314.895 275.464C315.462 274.784 316.017 274.059 316.561 273.288C317.128 272.495 317.592 271.679 317.955 270.84C318.34 270.001 318.533 269.185 318.533 268.392C318.533 267.848 318.397 267.281 318.125 266.692C317.853 266.103 317.57 265.536 317.275 264.992C317.252 264.969 317.241 264.913 317.241 264.822C317.241 264.731 317.286 264.641 317.377 264.55L319.077 263.36ZM334.893 264.346L336.695 263.292L336.865 263.462C336.729 265.933 336.661 268.403 336.661 270.874C336.661 271.395 336.638 272.019 336.593 272.744C336.57 273.469 336.581 274.172 336.627 274.852C336.672 275.532 336.797 276.099 337.001 276.552C337.205 277.005 337.533 277.232 337.987 277.232C338.236 277.232 338.576 277.164 339.007 277.028C339.437 276.892 339.834 276.756 340.197 276.62L340.435 277.436C339.981 277.708 339.494 278.003 338.973 278.32C338.451 278.615 337.941 278.864 337.443 279.068C336.944 279.295 336.513 279.408 336.151 279.408C335.516 279.408 335.063 279.215 334.791 278.83C334.519 278.445 334.326 277.969 334.213 277.402L333.703 277.266C332.864 277.81 331.98 278.309 331.051 278.762C330.121 279.193 329.158 279.408 328.161 279.408C327.209 279.408 326.415 279.204 325.781 278.796C325.146 278.388 324.636 277.855 324.251 277.198C323.865 276.541 323.582 275.827 323.401 275.056C323.242 274.263 323.163 273.481 323.163 272.71C323.163 271.509 323.31 270.341 323.605 269.208C323.922 268.075 324.398 267.055 325.033 266.148C325.69 265.219 326.529 264.493 327.549 263.972C328.569 263.428 329.804 263.156 331.255 263.156C331.799 263.156 332.399 263.258 333.057 263.462C333.737 263.666 334.349 263.961 334.893 264.346ZM334.145 275.634V267.814C334.145 267.361 334.122 266.93 334.077 266.522C334.031 266.114 333.873 265.763 333.601 265.468C333.306 265.151 332.955 264.89 332.547 264.686C332.139 264.459 331.719 264.346 331.289 264.346C330.042 264.346 328.965 264.777 328.059 265.638C327.673 266.001 327.277 266.669 326.869 267.644C326.483 268.619 326.268 269.967 326.223 271.69C326.2 272.393 326.257 273.107 326.393 273.832C326.529 274.535 326.789 275.181 327.175 275.77C327.537 276.337 328.025 276.711 328.637 276.892C329.271 277.073 329.906 277.164 330.541 277.164C331.198 277.164 331.833 277.005 332.445 276.688C333.079 276.371 333.646 276.019 334.145 275.634Z" fill="black"/>
<line x1="-8.74228e-08" y1="257" x2="164" y2="257" stroke="black" stroke-width="2"/>
<line x1="336" y1="278" x2="503" y2="278" stroke="black" stroke-width="2"/>
</svg>
